%TF.GenerationSoftware,KiCad,Pcbnew,7.0.1*%
%TF.CreationDate,2023-06-12T23:03:10-04:00*%
%TF.ProjectId,SD Card Activity,53442043-6172-4642-9041-637469766974,rev?*%
%TF.SameCoordinates,Original*%
%TF.FileFunction,Copper,L1,Top*%
%TF.FilePolarity,Positive*%
%FSLAX46Y46*%
G04 Gerber Fmt 4.6, Leading zero omitted, Abs format (unit mm)*
G04 Created by KiCad (PCBNEW 7.0.1) date 2023-06-12 23:03:10*
%MOMM*%
%LPD*%
G01*
G04 APERTURE LIST*
G04 Aperture macros list*
%AMRoundRect*
0 Rectangle with rounded corners*
0 $1 Rounding radius*
0 $2 $3 $4 $5 $6 $7 $8 $9 X,Y pos of 4 corners*
0 Add a 4 corners polygon primitive as box body*
4,1,4,$2,$3,$4,$5,$6,$7,$8,$9,$2,$3,0*
0 Add four circle primitives for the rounded corners*
1,1,$1+$1,$2,$3*
1,1,$1+$1,$4,$5*
1,1,$1+$1,$6,$7*
1,1,$1+$1,$8,$9*
0 Add four rect primitives between the rounded corners*
20,1,$1+$1,$2,$3,$4,$5,0*
20,1,$1+$1,$4,$5,$6,$7,0*
20,1,$1+$1,$6,$7,$8,$9,0*
20,1,$1+$1,$8,$9,$2,$3,0*%
G04 Aperture macros list end*
%TA.AperFunction,ComponentPad*%
%ADD10R,1.700000X1.700000*%
%TD*%
%TA.AperFunction,ComponentPad*%
%ADD11O,1.700000X1.700000*%
%TD*%
%TA.AperFunction,SMDPad,CuDef*%
%ADD12RoundRect,0.250000X0.475000X-0.337500X0.475000X0.337500X-0.475000X0.337500X-0.475000X-0.337500X0*%
%TD*%
%TA.AperFunction,SMDPad,CuDef*%
%ADD13RoundRect,0.250000X-0.337500X-0.475000X0.337500X-0.475000X0.337500X0.475000X-0.337500X0.475000X0*%
%TD*%
%TA.AperFunction,SMDPad,CuDef*%
%ADD14RoundRect,0.100000X0.100000X-0.217500X0.100000X0.217500X-0.100000X0.217500X-0.100000X-0.217500X0*%
%TD*%
%TA.AperFunction,SMDPad,CuDef*%
%ADD15RoundRect,0.150000X-0.587500X-0.150000X0.587500X-0.150000X0.587500X0.150000X-0.587500X0.150000X0*%
%TD*%
%TA.AperFunction,SMDPad,CuDef*%
%ADD16R,0.450000X0.300000*%
%TD*%
%TA.AperFunction,Conductor*%
%ADD17C,0.250000*%
%TD*%
G04 APERTURE END LIST*
D10*
%TO.P,J2,1,Pin_1*%
%TO.N,/ACT_LED_NEG*%
X157620000Y-73150000D03*
D11*
%TO.P,J2,2,Pin_2*%
%TO.N,Net-(J2-Pin_2)*%
X157620000Y-75690000D03*
%TD*%
%TO.P,J4,3,Pin_3*%
%TO.N,VCC*%
X146855000Y-62775000D03*
%TO.P,J4,2,Pin_2*%
%TO.N,/3.3V*%
X144315000Y-62775000D03*
D10*
%TO.P,J4,1,Pin_1*%
%TO.N,GND*%
X141775000Y-62775000D03*
%TD*%
%TO.P,J3,1,Pin_1*%
%TO.N,GND*%
X157600000Y-63860000D03*
D11*
%TO.P,J3,2,Pin_2*%
%TO.N,VCC*%
X157600000Y-66400000D03*
%TD*%
D10*
%TO.P,J1,1,Pin_1*%
%TO.N,GND*%
X137922000Y-68072000D03*
D11*
%TO.P,J1,2,Pin_2*%
%TO.N,/SD_CMD*%
X137922000Y-70612000D03*
%TD*%
D12*
%TO.P,R2,2*%
%TO.N,VCC*%
X153670000Y-70569000D03*
%TO.P,R2,1*%
%TO.N,Net-(J2-Pin_2)*%
X153670000Y-72644000D03*
%TD*%
%TO.P,R1,2*%
%TO.N,Net-(D1-A)*%
X153670000Y-63986500D03*
%TO.P,R1,1*%
%TO.N,VCC*%
X153670000Y-66061500D03*
%TD*%
D13*
%TO.P,C1,1*%
%TO.N,/3.3V*%
X143742500Y-69088000D03*
%TO.P,C1,2*%
%TO.N,GND*%
X145817500Y-69088000D03*
%TD*%
D14*
%TO.P,D1,1,K*%
%TO.N,/ACT_LED_NEG*%
X150114000Y-69698000D03*
%TO.P,D1,2,A*%
%TO.N,Net-(D1-A)*%
X150114000Y-68883000D03*
%TD*%
D15*
%TO.P,Q1,1,G*%
%TO.N,Net-(Q1-G)*%
X148225000Y-74950000D03*
%TO.P,Q1,2,S*%
%TO.N,GND*%
X148225000Y-76850000D03*
%TO.P,Q1,3,D*%
%TO.N,/ACT_LED_NEG*%
X150100000Y-75900000D03*
%TD*%
D16*
%TO.P,U1,1*%
%TO.N,N/C*%
X143500000Y-74100000D03*
%TO.P,U1,2*%
%TO.N,/SD_CMD*%
X143500000Y-74600000D03*
%TO.P,U1,3,GND*%
%TO.N,GND*%
X143500000Y-75100000D03*
%TO.P,U1,4*%
%TO.N,Net-(Q1-G)*%
X144900000Y-75100000D03*
%TO.P,U1,5,VCC*%
%TO.N,/3.3V*%
X144900000Y-74100000D03*
%TD*%
D17*
%TO.N,GND*%
X143580000Y-76190000D02*
X143580000Y-76250000D01*
X143500000Y-76110000D02*
X143580000Y-76190000D01*
X143500000Y-75100000D02*
X143500000Y-76110000D01*
%TO.N,Net-(Q1-G)*%
X148205000Y-74930000D02*
X148225000Y-74950000D01*
X145070000Y-74930000D02*
X148205000Y-74930000D01*
X144900000Y-75100000D02*
X145070000Y-74930000D01*
%TO.N,VCC*%
X154084173Y-62775000D02*
X154720000Y-63410827D01*
X153670000Y-70569000D02*
X153670000Y-66061500D01*
X157600000Y-66400000D02*
X154008500Y-66400000D01*
X146855000Y-62775000D02*
X154084173Y-62775000D01*
X154720000Y-65011500D02*
X153670000Y-66061500D01*
X154720000Y-63410827D02*
X154720000Y-65011500D01*
X154008500Y-66400000D02*
X153670000Y-66061500D01*
%TO.N,/SD_CMD*%
X141910000Y-74600000D02*
X143500000Y-74600000D01*
X137922000Y-70612000D02*
X141910000Y-74600000D01*
%TO.N,/3.3V*%
X143742500Y-69088000D02*
X144315000Y-68515500D01*
X144900000Y-70245500D02*
X143742500Y-69088000D01*
X144315000Y-68515500D02*
X144315000Y-62775000D01*
X144900000Y-74100000D02*
X144900000Y-70245500D01*
%TO.N,/ACT_LED_NEG*%
X150114000Y-69749500D02*
X150114000Y-75886000D01*
X150100000Y-75900000D02*
X151065000Y-76865000D01*
X150114000Y-75886000D02*
X150100000Y-75900000D01*
X151065000Y-76865000D02*
X158212000Y-76865000D01*
X158212000Y-76865000D02*
X158795000Y-76282000D01*
X158795000Y-76282000D02*
X158795000Y-74325000D01*
X158795000Y-74325000D02*
X157620000Y-73150000D01*
%TO.N,Net-(D1-A)*%
X150114000Y-67991827D02*
X153670000Y-64435827D01*
X150114000Y-68934500D02*
X150114000Y-67991827D01*
X153670000Y-64435827D02*
X153670000Y-63986500D01*
%TO.N,Net-(J2-Pin_2)*%
X157620000Y-75690000D02*
X154574000Y-72644000D01*
X154574000Y-72644000D02*
X153670000Y-72644000D01*
%TD*%
%TA.AperFunction,Conductor*%
%TO.N,GND*%
G36*
X152393073Y-63419278D02*
G01*
X152438810Y-63469926D01*
X152450823Y-63537103D01*
X152444500Y-63598992D01*
X152444500Y-64374008D01*
X152455000Y-64476796D01*
X152480312Y-64553183D01*
X152502982Y-64621594D01*
X152505934Y-64689192D01*
X152472957Y-64748277D01*
X149730208Y-67491026D01*
X149714110Y-67503923D01*
X149666096Y-67555052D01*
X149663391Y-67557844D01*
X149643874Y-67577361D01*
X149641415Y-67580532D01*
X149633842Y-67589399D01*
X149603935Y-67621247D01*
X149594285Y-67638801D01*
X149583609Y-67655055D01*
X149571326Y-67670890D01*
X149553975Y-67710985D01*
X149548838Y-67721471D01*
X149527802Y-67759734D01*
X149522821Y-67779136D01*
X149516520Y-67797538D01*
X149508561Y-67815929D01*
X149501728Y-67859069D01*
X149499360Y-67870501D01*
X149488500Y-67912805D01*
X149488500Y-67932843D01*
X149486973Y-67952242D01*
X149483840Y-67972021D01*
X149487950Y-68015502D01*
X149488500Y-68027171D01*
X149488500Y-68340321D01*
X149479061Y-68387773D01*
X149428956Y-68508737D01*
X149413500Y-68626137D01*
X149413500Y-69139862D01*
X149431086Y-69273447D01*
X149429169Y-69273699D01*
X149432507Y-69290490D01*
X149429168Y-69307302D01*
X149431087Y-69307555D01*
X149428956Y-69323736D01*
X149428956Y-69323738D01*
X149418758Y-69401199D01*
X149413500Y-69441138D01*
X149413500Y-69954862D01*
X149428955Y-70072260D01*
X149479061Y-70193226D01*
X149488500Y-70240679D01*
X149488500Y-74256692D01*
X149474985Y-74312987D01*
X149437385Y-74357010D01*
X149383898Y-74379165D01*
X149326182Y-74374623D01*
X149276819Y-74344373D01*
X149214365Y-74281919D01*
X149072897Y-74198255D01*
X148915072Y-74152402D01*
X148892944Y-74150660D01*
X148878194Y-74149500D01*
X147571806Y-74149500D01*
X147559514Y-74150467D01*
X147534927Y-74152402D01*
X147377102Y-74198255D01*
X147302289Y-74242500D01*
X147235635Y-74281919D01*
X147235634Y-74281919D01*
X147226652Y-74287232D01*
X147163531Y-74304500D01*
X145749500Y-74304500D01*
X145687500Y-74287887D01*
X145642113Y-74242500D01*
X145625500Y-74180500D01*
X145625499Y-73902130D01*
X145621569Y-73865573D01*
X145619091Y-73842517D01*
X145568796Y-73707669D01*
X145550231Y-73682869D01*
X145531845Y-73647720D01*
X145525500Y-73608561D01*
X145525500Y-70406362D01*
X145534939Y-70358909D01*
X145561820Y-70318680D01*
X145567500Y-70313000D01*
X145567500Y-69338000D01*
X146067500Y-69338000D01*
X146067500Y-70312999D01*
X146204979Y-70312999D01*
X146307695Y-70302506D01*
X146474122Y-70247357D01*
X146623345Y-70155316D01*
X146747316Y-70031345D01*
X146839357Y-69882122D01*
X146894506Y-69715696D01*
X146905000Y-69612979D01*
X146905000Y-69338000D01*
X146067500Y-69338000D01*
X145567500Y-69338000D01*
X145567500Y-67863001D01*
X145430021Y-67863001D01*
X145327304Y-67873493D01*
X145160877Y-67928642D01*
X145129596Y-67947937D01*
X145067204Y-67966369D01*
X145004068Y-67950675D01*
X144957566Y-67905177D01*
X144946100Y-67863000D01*
X146067500Y-67863000D01*
X146067500Y-68838000D01*
X146904999Y-68838000D01*
X146904999Y-68563021D01*
X146894506Y-68460304D01*
X146839357Y-68293877D01*
X146747316Y-68144654D01*
X146623345Y-68020683D01*
X146474122Y-67928642D01*
X146307696Y-67873493D01*
X146204979Y-67863000D01*
X146067500Y-67863000D01*
X144946100Y-67863000D01*
X144940500Y-67842398D01*
X144940500Y-64050227D01*
X144954511Y-63992970D01*
X144993374Y-63948653D01*
X145186401Y-63813495D01*
X145353495Y-63646401D01*
X145483426Y-63460839D01*
X145527743Y-63421975D01*
X145585000Y-63407964D01*
X145642257Y-63421975D01*
X145686573Y-63460839D01*
X145816505Y-63646401D01*
X145983599Y-63813495D01*
X146177170Y-63949035D01*
X146391337Y-64048903D01*
X146619592Y-64110063D01*
X146855000Y-64130659D01*
X147090408Y-64110063D01*
X147318663Y-64048903D01*
X147532830Y-63949035D01*
X147726401Y-63813495D01*
X147893495Y-63646401D01*
X148028653Y-63453374D01*
X148072970Y-63414511D01*
X148130227Y-63400500D01*
X152327465Y-63400500D01*
X152393073Y-63419278D01*
G37*
%TD.AperFunction*%
%TA.AperFunction,Conductor*%
G36*
X161237500Y-59917113D02*
G01*
X161282887Y-59962500D01*
X161299500Y-60024500D01*
X161299500Y-80075500D01*
X161282887Y-80137500D01*
X161237500Y-80182887D01*
X161175500Y-80199500D01*
X134746500Y-80199500D01*
X134684500Y-80182887D01*
X134639113Y-80137500D01*
X134622500Y-80075500D01*
X134622500Y-77029764D01*
X135813787Y-77029764D01*
X135843413Y-77299016D01*
X135911928Y-77561087D01*
X136017871Y-77810392D01*
X136158982Y-78041611D01*
X136248253Y-78148881D01*
X136332255Y-78249820D01*
X136533998Y-78430582D01*
X136759910Y-78580044D01*
X136866211Y-78629875D01*
X137005177Y-78695021D01*
X137264562Y-78773058D01*
X137264569Y-78773060D01*
X137532561Y-78812500D01*
X137735631Y-78812500D01*
X137735634Y-78812500D01*
X137938156Y-78797677D01*
X137938155Y-78797677D01*
X138202553Y-78738780D01*
X138455558Y-78642014D01*
X138691777Y-78509441D01*
X138906177Y-78343888D01*
X139094186Y-78148881D01*
X139251799Y-77928579D01*
X139375656Y-77687675D01*
X139463118Y-77431305D01*
X139512319Y-77164933D01*
X139514692Y-77100000D01*
X146990204Y-77100000D01*
X146990400Y-77102488D01*
X147036219Y-77260200D01*
X147119817Y-77401557D01*
X147235942Y-77517682D01*
X147377302Y-77601282D01*
X147535006Y-77647099D01*
X147571861Y-77650000D01*
X147975000Y-77650000D01*
X147975000Y-77100000D01*
X148475000Y-77100000D01*
X148475000Y-77650000D01*
X148878139Y-77650000D01*
X148914993Y-77647099D01*
X149072697Y-77601282D01*
X149214057Y-77517682D01*
X149330182Y-77401557D01*
X149413780Y-77260200D01*
X149459599Y-77102488D01*
X149459795Y-77100000D01*
X148475000Y-77100000D01*
X147975000Y-77100000D01*
X146990204Y-77100000D01*
X139514692Y-77100000D01*
X139522212Y-76894235D01*
X139492586Y-76624982D01*
X139486055Y-76599999D01*
X146990204Y-76599999D01*
X146990205Y-76600000D01*
X147975000Y-76600000D01*
X147975000Y-76050000D01*
X147571861Y-76050000D01*
X147535006Y-76052900D01*
X147377302Y-76098717D01*
X147235942Y-76182317D01*
X147119817Y-76298442D01*
X147036219Y-76439799D01*
X146990400Y-76597511D01*
X146990204Y-76599999D01*
X139486055Y-76599999D01*
X139424072Y-76362912D01*
X139318130Y-76113610D01*
X139177018Y-75882390D01*
X139177017Y-75882388D01*
X139003746Y-75674181D01*
X138941134Y-75618081D01*
X138802002Y-75493418D01*
X138576090Y-75343956D01*
X138576086Y-75343954D01*
X138330822Y-75228978D01*
X138071437Y-75150941D01*
X138071431Y-75150940D01*
X137803439Y-75111500D01*
X137600369Y-75111500D01*
X137600366Y-75111500D01*
X137397843Y-75126322D01*
X137133449Y-75185219D01*
X136880441Y-75281986D01*
X136644223Y-75414559D01*
X136429825Y-75580109D01*
X136241813Y-75775120D01*
X136084201Y-75995420D01*
X135960342Y-76236329D01*
X135872881Y-76492695D01*
X135823680Y-76759066D01*
X135813787Y-77029764D01*
X134622500Y-77029764D01*
X134622500Y-70611999D01*
X136566340Y-70611999D01*
X136586936Y-70847407D01*
X136586937Y-70847409D01*
X136648097Y-71075663D01*
X136747965Y-71289830D01*
X136883505Y-71483401D01*
X137050599Y-71650495D01*
X137244170Y-71786035D01*
X137458337Y-71885903D01*
X137686592Y-71947063D01*
X137922000Y-71967659D01*
X138157408Y-71947063D01*
X138257874Y-71920143D01*
X138322059Y-71920143D01*
X138377647Y-71952237D01*
X141409197Y-74983787D01*
X141422098Y-74999889D01*
X141424212Y-75001874D01*
X141424214Y-75001877D01*
X141471441Y-75046227D01*
X141473240Y-75047916D01*
X141476036Y-75050626D01*
X141495530Y-75070120D01*
X141498704Y-75072582D01*
X141507568Y-75080153D01*
X141539418Y-75110062D01*
X141549914Y-75115832D01*
X141556974Y-75119714D01*
X141573231Y-75130392D01*
X141589064Y-75142674D01*
X141601962Y-75148255D01*
X141629156Y-75160023D01*
X141639643Y-75165160D01*
X141677908Y-75186197D01*
X141697316Y-75191180D01*
X141715710Y-75197478D01*
X141734105Y-75205438D01*
X141777254Y-75212271D01*
X141788680Y-75214638D01*
X141804222Y-75218629D01*
X141830980Y-75225500D01*
X141830981Y-75225500D01*
X141851016Y-75225500D01*
X141870413Y-75227026D01*
X141890196Y-75230160D01*
X141933674Y-75226050D01*
X141945344Y-75225500D01*
X142655841Y-75225500D01*
X142713969Y-75239969D01*
X142758532Y-75279998D01*
X142779131Y-75336247D01*
X142781402Y-75357375D01*
X142831647Y-75492089D01*
X142917811Y-75607188D01*
X143032910Y-75693352D01*
X143167624Y-75743597D01*
X143227176Y-75750000D01*
X143350000Y-75750000D01*
X143350000Y-75374500D01*
X143366612Y-75312501D01*
X143411999Y-75267114D01*
X143473998Y-75250500D01*
X143499997Y-75250499D01*
X143525999Y-75250499D01*
X143587999Y-75267111D01*
X143633387Y-75312498D01*
X143650000Y-75374499D01*
X143650000Y-75750000D01*
X143772824Y-75750000D01*
X143832375Y-75743597D01*
X143967089Y-75693352D01*
X144082189Y-75607188D01*
X144100419Y-75582836D01*
X144144181Y-75546262D01*
X144199685Y-75533145D01*
X144255190Y-75546260D01*
X144298953Y-75582833D01*
X144317452Y-75607545D01*
X144370728Y-75647427D01*
X144432669Y-75693796D01*
X144567517Y-75744091D01*
X144627127Y-75750500D01*
X145172872Y-75750499D01*
X145232483Y-75744091D01*
X145367331Y-75693796D01*
X145482546Y-75607546D01*
X145484308Y-75605191D01*
X145528072Y-75568616D01*
X145583577Y-75555500D01*
X147121692Y-75555500D01*
X147169145Y-75564939D01*
X147209373Y-75591819D01*
X147235635Y-75618081D01*
X147347616Y-75684306D01*
X147377102Y-75701744D01*
X147534927Y-75747597D01*
X147534931Y-75747598D01*
X147571806Y-75750500D01*
X148738000Y-75750500D01*
X148800000Y-75767113D01*
X148845387Y-75812500D01*
X148862000Y-75874500D01*
X148862000Y-75926000D01*
X148845387Y-75988000D01*
X148800000Y-76033387D01*
X148738000Y-76050000D01*
X148475000Y-76050000D01*
X148475000Y-76600000D01*
X149130685Y-76600000D01*
X149193806Y-76617268D01*
X149252102Y-76651744D01*
X149409927Y-76697597D01*
X149409931Y-76697598D01*
X149446806Y-76700500D01*
X149964548Y-76700500D01*
X150012001Y-76709939D01*
X150052229Y-76736819D01*
X150564196Y-77248787D01*
X150577096Y-77264888D01*
X150628223Y-77312900D01*
X150631019Y-77315610D01*
X150650529Y-77335120D01*
X150653711Y-77337588D01*
X150662571Y-77345155D01*
X150694418Y-77375062D01*
X150711970Y-77384711D01*
X150728238Y-77395397D01*
X150744064Y-77407673D01*
X150784146Y-77425017D01*
X150794633Y-77430155D01*
X150832907Y-77451197D01*
X150841410Y-77453379D01*
X150852308Y-77456178D01*
X150870713Y-77462478D01*
X150889104Y-77470437D01*
X150932250Y-77477270D01*
X150943668Y-77479635D01*
X150985981Y-77490500D01*
X151006016Y-77490500D01*
X151025415Y-77492027D01*
X151045196Y-77495160D01*
X151088674Y-77491050D01*
X151100344Y-77490500D01*
X158129256Y-77490500D01*
X158149762Y-77492764D01*
X158152665Y-77492672D01*
X158152667Y-77492673D01*
X158219872Y-77490561D01*
X158223768Y-77490500D01*
X158251349Y-77490500D01*
X158251350Y-77490500D01*
X158255319Y-77489998D01*
X158266965Y-77489080D01*
X158310627Y-77487709D01*
X158329859Y-77482120D01*
X158348918Y-77478174D01*
X158356099Y-77477267D01*
X158368792Y-77475664D01*
X158409407Y-77459582D01*
X158420444Y-77455803D01*
X158462390Y-77443618D01*
X158479629Y-77433422D01*
X158497102Y-77424862D01*
X158515732Y-77417486D01*
X158551064Y-77391814D01*
X158560830Y-77385400D01*
X158598418Y-77363171D01*
X158598417Y-77363171D01*
X158598420Y-77363170D01*
X158612585Y-77349004D01*
X158627373Y-77336373D01*
X158643587Y-77324594D01*
X158671438Y-77290926D01*
X158679279Y-77282309D01*
X159178786Y-76782802D01*
X159194887Y-76769904D01*
X159196874Y-76767787D01*
X159196877Y-76767786D01*
X159242932Y-76718741D01*
X159245613Y-76715976D01*
X159251650Y-76709939D01*
X159265120Y-76696470D01*
X159267581Y-76693295D01*
X159275152Y-76684431D01*
X159305062Y-76652582D01*
X159314713Y-76635026D01*
X159325393Y-76618767D01*
X159337674Y-76602936D01*
X159355018Y-76562851D01*
X159360160Y-76552356D01*
X159381197Y-76514092D01*
X159386178Y-76494688D01*
X159392480Y-76476283D01*
X159400438Y-76457895D01*
X159407270Y-76414748D01*
X159409639Y-76403316D01*
X159420500Y-76361020D01*
X159420500Y-76340984D01*
X159422027Y-76321585D01*
X159425160Y-76301804D01*
X159421050Y-76258325D01*
X159420500Y-76246656D01*
X159420500Y-74407744D01*
X159422764Y-74387237D01*
X159422510Y-74379165D01*
X159420561Y-74317127D01*
X159420500Y-74313232D01*
X159420500Y-74285653D01*
X159420028Y-74281919D01*
X159419996Y-74281665D01*
X159419080Y-74270019D01*
X159417709Y-74226373D01*
X159412120Y-74207140D01*
X159408174Y-74188082D01*
X159405664Y-74168206D01*
X159389588Y-74127604D01*
X159385804Y-74116553D01*
X159379881Y-74096168D01*
X159373618Y-74074610D01*
X159363414Y-74057355D01*
X159354861Y-74039895D01*
X159347486Y-74021269D01*
X159347486Y-74021268D01*
X159321808Y-73985925D01*
X159315401Y-73976171D01*
X159308831Y-73965061D01*
X159293170Y-73938580D01*
X159279006Y-73924415D01*
X159266367Y-73909617D01*
X159254595Y-73893413D01*
X159220941Y-73865573D01*
X159212299Y-73857709D01*
X159006818Y-73652228D01*
X158979938Y-73612000D01*
X158970499Y-73564547D01*
X158970499Y-72252130D01*
X158969423Y-72242123D01*
X158964091Y-72192517D01*
X158913796Y-72057669D01*
X158827546Y-71942454D01*
X158712331Y-71856204D01*
X158577483Y-71805909D01*
X158517873Y-71799500D01*
X158517869Y-71799500D01*
X156722130Y-71799500D01*
X156662515Y-71805909D01*
X156527669Y-71856204D01*
X156412454Y-71942454D01*
X156326204Y-72057668D01*
X156275909Y-72192516D01*
X156269500Y-72252131D01*
X156269500Y-73155547D01*
X156255985Y-73211842D01*
X156218385Y-73255865D01*
X156164898Y-73278020D01*
X156107182Y-73273478D01*
X156057819Y-73243228D01*
X155074802Y-72260211D01*
X155061906Y-72244113D01*
X155010775Y-72196098D01*
X155007978Y-72193387D01*
X154988470Y-72173879D01*
X154985290Y-72171412D01*
X154976424Y-72163839D01*
X154944582Y-72133938D01*
X154927024Y-72124285D01*
X154910762Y-72113603D01*
X154888029Y-72095969D01*
X154862788Y-72069586D01*
X154846325Y-72036994D01*
X154829814Y-71987166D01*
X154755152Y-71866118D01*
X154737711Y-71837842D01*
X154613657Y-71713788D01*
X154610821Y-71712039D01*
X154567640Y-71666932D01*
X154551917Y-71606500D01*
X154567640Y-71546068D01*
X154610821Y-71500961D01*
X154613654Y-71499213D01*
X154613656Y-71499212D01*
X154737712Y-71375156D01*
X154829814Y-71225834D01*
X154884999Y-71059297D01*
X154895500Y-70956509D01*
X154895499Y-70181492D01*
X154892865Y-70155711D01*
X154884999Y-70078703D01*
X154857299Y-69995110D01*
X154829814Y-69912166D01*
X154737712Y-69762844D01*
X154737711Y-69762842D01*
X154613657Y-69638788D01*
X154464334Y-69546686D01*
X154464333Y-69546685D01*
X154380495Y-69518904D01*
X154336171Y-69493026D01*
X154306123Y-69451414D01*
X154295500Y-69401199D01*
X154295500Y-67229301D01*
X154306123Y-67179086D01*
X154336171Y-67137474D01*
X154380495Y-67111595D01*
X154464334Y-67083814D01*
X154528946Y-67043961D01*
X154594043Y-67025500D01*
X156324773Y-67025500D01*
X156382030Y-67039511D01*
X156426346Y-67078374D01*
X156561505Y-67271401D01*
X156728599Y-67438495D01*
X156922170Y-67574035D01*
X157136337Y-67673903D01*
X157364591Y-67735062D01*
X157364592Y-67735063D01*
X157599999Y-67755659D01*
X157599999Y-67755658D01*
X157600000Y-67755659D01*
X157835408Y-67735063D01*
X158063663Y-67673903D01*
X158277830Y-67574035D01*
X158471401Y-67438495D01*
X158638495Y-67271401D01*
X158774035Y-67077830D01*
X158873903Y-66863663D01*
X158935063Y-66635408D01*
X158955659Y-66400000D01*
X158935063Y-66164592D01*
X158873903Y-65936337D01*
X158774035Y-65722171D01*
X158638495Y-65528599D01*
X158516181Y-65406284D01*
X158484885Y-65353539D01*
X158482696Y-65292246D01*
X158510149Y-65237401D01*
X158560528Y-65202422D01*
X158692089Y-65153352D01*
X158807188Y-65067188D01*
X158893352Y-64952089D01*
X158943597Y-64817375D01*
X158950000Y-64757824D01*
X158950000Y-64110000D01*
X156250000Y-64110000D01*
X156250000Y-64757824D01*
X156256402Y-64817375D01*
X156306647Y-64952089D01*
X156392811Y-65067188D01*
X156507911Y-65153352D01*
X156639471Y-65202422D01*
X156689850Y-65237401D01*
X156717303Y-65292246D01*
X156715114Y-65353539D01*
X156683819Y-65406285D01*
X156561503Y-65528601D01*
X156537543Y-65562820D01*
X156427072Y-65720591D01*
X156426349Y-65721623D01*
X156382031Y-65760489D01*
X156324774Y-65774500D01*
X155140952Y-65774500D01*
X155084657Y-65760985D01*
X155040634Y-65723386D01*
X155018479Y-65669899D01*
X155023021Y-65612183D01*
X155053270Y-65562820D01*
X155053270Y-65562819D01*
X155103788Y-65512301D01*
X155119885Y-65499406D01*
X155121873Y-65497287D01*
X155121877Y-65497286D01*
X155167948Y-65448223D01*
X155170566Y-65445523D01*
X155190120Y-65425971D01*
X155192581Y-65422798D01*
X155200156Y-65413927D01*
X155230062Y-65382082D01*
X155239717Y-65364518D01*
X155250394Y-65348264D01*
X155262673Y-65332436D01*
X155280018Y-65292352D01*
X155285160Y-65281856D01*
X155306197Y-65243592D01*
X155311179Y-65224184D01*
X155317481Y-65205780D01*
X155325437Y-65187396D01*
X155332269Y-65144252D01*
X155334633Y-65132838D01*
X155345500Y-65090519D01*
X155345500Y-65070484D01*
X155347027Y-65051085D01*
X155348095Y-65044341D01*
X155350160Y-65031304D01*
X155346050Y-64987825D01*
X155345500Y-64976156D01*
X155345500Y-63610000D01*
X156250000Y-63610000D01*
X157350000Y-63610000D01*
X157350000Y-62510000D01*
X157850000Y-62510000D01*
X157850000Y-63610000D01*
X158950000Y-63610000D01*
X158950000Y-62962176D01*
X158943597Y-62902624D01*
X158893352Y-62767910D01*
X158807188Y-62652811D01*
X158692089Y-62566647D01*
X158557375Y-62516402D01*
X158497824Y-62510000D01*
X157850000Y-62510000D01*
X157350000Y-62510000D01*
X156702176Y-62510000D01*
X156642624Y-62516402D01*
X156507910Y-62566647D01*
X156392811Y-62652811D01*
X156306647Y-62767910D01*
X156256402Y-62902624D01*
X156250000Y-62962176D01*
X156250000Y-63610000D01*
X155345500Y-63610000D01*
X155345500Y-63493568D01*
X155347763Y-63473064D01*
X155347664Y-63469926D01*
X155345561Y-63402972D01*
X155345500Y-63399078D01*
X155345500Y-63371484D01*
X155345500Y-63371477D01*
X155344995Y-63367480D01*
X155344080Y-63355850D01*
X155342709Y-63312200D01*
X155337120Y-63292967D01*
X155333174Y-63273909D01*
X155330664Y-63254035D01*
X155314588Y-63213433D01*
X155310804Y-63202379D01*
X155298619Y-63160440D01*
X155298618Y-63160439D01*
X155298618Y-63160437D01*
X155288417Y-63143188D01*
X155279860Y-63125722D01*
X155272486Y-63107095D01*
X155246813Y-63071759D01*
X155240402Y-63061999D01*
X155218169Y-63024405D01*
X155204006Y-63010242D01*
X155191369Y-62995447D01*
X155179595Y-62979241D01*
X155179594Y-62979240D01*
X155145935Y-62951395D01*
X155137305Y-62943541D01*
X154584975Y-62391211D01*
X154572079Y-62375113D01*
X154520948Y-62327098D01*
X154518151Y-62324387D01*
X154498643Y-62304879D01*
X154495463Y-62302412D01*
X154486597Y-62294839D01*
X154454755Y-62264938D01*
X154437197Y-62255285D01*
X154420937Y-62244604D01*
X154405109Y-62232327D01*
X154365024Y-62214980D01*
X154354534Y-62209841D01*
X154316264Y-62188802D01*
X154296864Y-62183821D01*
X154278457Y-62177519D01*
X154260070Y-62169562D01*
X154216931Y-62162729D01*
X154205497Y-62160361D01*
X154163192Y-62149500D01*
X154143157Y-62149500D01*
X154123759Y-62147973D01*
X154116335Y-62146797D01*
X154103978Y-62144840D01*
X154103977Y-62144840D01*
X154070924Y-62147964D01*
X154060498Y-62148950D01*
X154048829Y-62149500D01*
X148130226Y-62149500D01*
X148072969Y-62135489D01*
X148028651Y-62096623D01*
X147893494Y-61903598D01*
X147726404Y-61736508D01*
X147726404Y-61736507D01*
X147726401Y-61736505D01*
X147532830Y-61600965D01*
X147318663Y-61501097D01*
X147246074Y-61481647D01*
X147090407Y-61439936D01*
X146855000Y-61419340D01*
X146619592Y-61439936D01*
X146391336Y-61501097D01*
X146177170Y-61600965D01*
X145983598Y-61736505D01*
X145816505Y-61903598D01*
X145686575Y-62089159D01*
X145642257Y-62128025D01*
X145585000Y-62142036D01*
X145527743Y-62128025D01*
X145483425Y-62089159D01*
X145353494Y-61903598D01*
X145186404Y-61736508D01*
X145186404Y-61736507D01*
X145186401Y-61736505D01*
X144992830Y-61600965D01*
X144778663Y-61501097D01*
X144706074Y-61481647D01*
X144550407Y-61439936D01*
X144315000Y-61419340D01*
X144079592Y-61439936D01*
X143851336Y-61501097D01*
X143637170Y-61600965D01*
X143443601Y-61736503D01*
X143321285Y-61858819D01*
X143268539Y-61890114D01*
X143207246Y-61892303D01*
X143152401Y-61864850D01*
X143117422Y-61814471D01*
X143068352Y-61682911D01*
X142982188Y-61567811D01*
X142867089Y-61481647D01*
X142732375Y-61431402D01*
X142672824Y-61425000D01*
X142025000Y-61425000D01*
X142025000Y-64125000D01*
X142672824Y-64125000D01*
X142732375Y-64118597D01*
X142867089Y-64068352D01*
X142982188Y-63982188D01*
X143068352Y-63867089D01*
X143117422Y-63735528D01*
X143152401Y-63685149D01*
X143207246Y-63657696D01*
X143268539Y-63659885D01*
X143321285Y-63691181D01*
X143443599Y-63813495D01*
X143636625Y-63948653D01*
X143675489Y-63992970D01*
X143689500Y-64050227D01*
X143689500Y-67738501D01*
X143672887Y-67800501D01*
X143627500Y-67845888D01*
X143565500Y-67862501D01*
X143354991Y-67862501D01*
X143252203Y-67873000D01*
X143085665Y-67928186D01*
X142936342Y-68020288D01*
X142812288Y-68144342D01*
X142720186Y-68293665D01*
X142665000Y-68460202D01*
X142654500Y-68562990D01*
X142654500Y-69613008D01*
X142665000Y-69715796D01*
X142720186Y-69882334D01*
X142812288Y-70031657D01*
X142936342Y-70155711D01*
X142936344Y-70155712D01*
X143085666Y-70247814D01*
X143197017Y-70284712D01*
X143252202Y-70302999D01*
X143262703Y-70304071D01*
X143354991Y-70313500D01*
X144032046Y-70313499D01*
X144079499Y-70322938D01*
X144119727Y-70349818D01*
X144238181Y-70468272D01*
X144265061Y-70508500D01*
X144274500Y-70555953D01*
X144274500Y-73488428D01*
X144255995Y-73553595D01*
X144206004Y-73599312D01*
X144139448Y-73611934D01*
X144076189Y-73587695D01*
X143967331Y-73506204D01*
X143832483Y-73455909D01*
X143772873Y-73449500D01*
X143772869Y-73449500D01*
X143227130Y-73449500D01*
X143167515Y-73455909D01*
X143032669Y-73506204D01*
X142917454Y-73592454D01*
X142831204Y-73707668D01*
X142780909Y-73842516D01*
X142778626Y-73863754D01*
X142758027Y-73920003D01*
X142713464Y-73960032D01*
X142655336Y-73974500D01*
X142220452Y-73974500D01*
X142172999Y-73965061D01*
X142132771Y-73938181D01*
X139262237Y-71067646D01*
X139230143Y-71012058D01*
X139230143Y-70947872D01*
X139257063Y-70847408D01*
X139277659Y-70612000D01*
X139257063Y-70376592D01*
X139195903Y-70148337D01*
X139096035Y-69934171D01*
X138960495Y-69740599D01*
X138838181Y-69618285D01*
X138806885Y-69565539D01*
X138804696Y-69504246D01*
X138832149Y-69449401D01*
X138882528Y-69414422D01*
X139014089Y-69365352D01*
X139129188Y-69279188D01*
X139215352Y-69164089D01*
X139265597Y-69029375D01*
X139272000Y-68969824D01*
X139272000Y-68322000D01*
X136572000Y-68322000D01*
X136572000Y-68969824D01*
X136578402Y-69029375D01*
X136628647Y-69164089D01*
X136714811Y-69279188D01*
X136829911Y-69365352D01*
X136961471Y-69414422D01*
X137011850Y-69449401D01*
X137039303Y-69504246D01*
X137037114Y-69565539D01*
X137005819Y-69618285D01*
X136883503Y-69740601D01*
X136747965Y-69934170D01*
X136648097Y-70148336D01*
X136586936Y-70376592D01*
X136566340Y-70611999D01*
X134622500Y-70611999D01*
X134622500Y-67822000D01*
X136572000Y-67822000D01*
X137672000Y-67822000D01*
X137672000Y-66722000D01*
X138172000Y-66722000D01*
X138172000Y-67822000D01*
X139272000Y-67822000D01*
X139272000Y-67174176D01*
X139265597Y-67114624D01*
X139215352Y-66979910D01*
X139129188Y-66864811D01*
X139014089Y-66778647D01*
X138879375Y-66728402D01*
X138819824Y-66722000D01*
X138172000Y-66722000D01*
X137672000Y-66722000D01*
X137024176Y-66722000D01*
X136964624Y-66728402D01*
X136829910Y-66778647D01*
X136714811Y-66864811D01*
X136628647Y-66979910D01*
X136578402Y-67114624D01*
X136572000Y-67174176D01*
X136572000Y-67822000D01*
X134622500Y-67822000D01*
X134622500Y-63025000D01*
X140425000Y-63025000D01*
X140425000Y-63672824D01*
X140431402Y-63732375D01*
X140481647Y-63867089D01*
X140567811Y-63982188D01*
X140682910Y-64068352D01*
X140817624Y-64118597D01*
X140877176Y-64125000D01*
X141525000Y-64125000D01*
X141525000Y-63025000D01*
X140425000Y-63025000D01*
X134622500Y-63025000D01*
X134622500Y-62525000D01*
X140425000Y-62525000D01*
X141525000Y-62525000D01*
X141525000Y-61425000D01*
X140877176Y-61425000D01*
X140817624Y-61431402D01*
X140682910Y-61481647D01*
X140567811Y-61567811D01*
X140481647Y-61682910D01*
X140431402Y-61817624D01*
X140425000Y-61877176D01*
X140425000Y-62525000D01*
X134622500Y-62525000D01*
X134622500Y-60024500D01*
X134639113Y-59962500D01*
X134684500Y-59917113D01*
X134746500Y-59900500D01*
X161175500Y-59900500D01*
X161237500Y-59917113D01*
G37*
%TD.AperFunction*%
%TD*%
M02*
