%TF.GenerationSoftware,KiCad,Pcbnew,7.0.1*%
%TF.CreationDate,2023-06-12T23:03:10-04:00*%
%TF.ProjectId,SD Card Activity,53442043-6172-4642-9041-637469766974,rev?*%
%TF.SameCoordinates,Original*%
%TF.FileFunction,Legend,Top*%
%TF.FilePolarity,Positive*%
%FSLAX46Y46*%
G04 Gerber Fmt 4.6, Leading zero omitted, Abs format (unit mm)*
G04 Created by KiCad (PCBNEW 7.0.1) date 2023-06-12 23:03:10*
%MOMM*%
%LPD*%
G01*
G04 APERTURE LIST*
%ADD10C,0.150000*%
%ADD11C,0.125000*%
%ADD12C,0.120000*%
%ADD13C,0.100000*%
G04 APERTURE END LIST*
D10*
X141552380Y-79300000D02*
X141666666Y-79347619D01*
X141666666Y-79347619D02*
X141857142Y-79347619D01*
X141857142Y-79347619D02*
X141933333Y-79300000D01*
X141933333Y-79300000D02*
X141971428Y-79252380D01*
X141971428Y-79252380D02*
X142009523Y-79157142D01*
X142009523Y-79157142D02*
X142009523Y-79061904D01*
X142009523Y-79061904D02*
X141971428Y-78966666D01*
X141971428Y-78966666D02*
X141933333Y-78919047D01*
X141933333Y-78919047D02*
X141857142Y-78871428D01*
X141857142Y-78871428D02*
X141704761Y-78823809D01*
X141704761Y-78823809D02*
X141628571Y-78776190D01*
X141628571Y-78776190D02*
X141590476Y-78728571D01*
X141590476Y-78728571D02*
X141552380Y-78633333D01*
X141552380Y-78633333D02*
X141552380Y-78538095D01*
X141552380Y-78538095D02*
X141590476Y-78442857D01*
X141590476Y-78442857D02*
X141628571Y-78395238D01*
X141628571Y-78395238D02*
X141704761Y-78347619D01*
X141704761Y-78347619D02*
X141895238Y-78347619D01*
X141895238Y-78347619D02*
X142009523Y-78395238D01*
X142352381Y-79347619D02*
X142352381Y-78347619D01*
X142352381Y-78347619D02*
X142542857Y-78347619D01*
X142542857Y-78347619D02*
X142657143Y-78395238D01*
X142657143Y-78395238D02*
X142733333Y-78490476D01*
X142733333Y-78490476D02*
X142771428Y-78585714D01*
X142771428Y-78585714D02*
X142809524Y-78776190D01*
X142809524Y-78776190D02*
X142809524Y-78919047D01*
X142809524Y-78919047D02*
X142771428Y-79109523D01*
X142771428Y-79109523D02*
X142733333Y-79204761D01*
X142733333Y-79204761D02*
X142657143Y-79300000D01*
X142657143Y-79300000D02*
X142542857Y-79347619D01*
X142542857Y-79347619D02*
X142352381Y-79347619D01*
X144104762Y-79300000D02*
X144028571Y-79347619D01*
X144028571Y-79347619D02*
X143876190Y-79347619D01*
X143876190Y-79347619D02*
X143800000Y-79300000D01*
X143800000Y-79300000D02*
X143761905Y-79252380D01*
X143761905Y-79252380D02*
X143723809Y-79157142D01*
X143723809Y-79157142D02*
X143723809Y-78871428D01*
X143723809Y-78871428D02*
X143761905Y-78776190D01*
X143761905Y-78776190D02*
X143800000Y-78728571D01*
X143800000Y-78728571D02*
X143876190Y-78680952D01*
X143876190Y-78680952D02*
X144028571Y-78680952D01*
X144028571Y-78680952D02*
X144104762Y-78728571D01*
X144790476Y-79347619D02*
X144790476Y-78823809D01*
X144790476Y-78823809D02*
X144752381Y-78728571D01*
X144752381Y-78728571D02*
X144676190Y-78680952D01*
X144676190Y-78680952D02*
X144523809Y-78680952D01*
X144523809Y-78680952D02*
X144447619Y-78728571D01*
X144790476Y-79300000D02*
X144714285Y-79347619D01*
X144714285Y-79347619D02*
X144523809Y-79347619D01*
X144523809Y-79347619D02*
X144447619Y-79300000D01*
X144447619Y-79300000D02*
X144409523Y-79204761D01*
X144409523Y-79204761D02*
X144409523Y-79109523D01*
X144409523Y-79109523D02*
X144447619Y-79014285D01*
X144447619Y-79014285D02*
X144523809Y-78966666D01*
X144523809Y-78966666D02*
X144714285Y-78966666D01*
X144714285Y-78966666D02*
X144790476Y-78919047D01*
X145171429Y-79347619D02*
X145171429Y-78680952D01*
X145171429Y-78871428D02*
X145209524Y-78776190D01*
X145209524Y-78776190D02*
X145247619Y-78728571D01*
X145247619Y-78728571D02*
X145323810Y-78680952D01*
X145323810Y-78680952D02*
X145400000Y-78680952D01*
X146009524Y-79347619D02*
X146009524Y-78347619D01*
X146009524Y-79300000D02*
X145933333Y-79347619D01*
X145933333Y-79347619D02*
X145780952Y-79347619D01*
X145780952Y-79347619D02*
X145704762Y-79300000D01*
X145704762Y-79300000D02*
X145666667Y-79252380D01*
X145666667Y-79252380D02*
X145628571Y-79157142D01*
X145628571Y-79157142D02*
X145628571Y-78871428D01*
X145628571Y-78871428D02*
X145666667Y-78776190D01*
X145666667Y-78776190D02*
X145704762Y-78728571D01*
X145704762Y-78728571D02*
X145780952Y-78680952D01*
X145780952Y-78680952D02*
X145933333Y-78680952D01*
X145933333Y-78680952D02*
X146009524Y-78728571D01*
X147342858Y-79347619D02*
X147342858Y-78823809D01*
X147342858Y-78823809D02*
X147304763Y-78728571D01*
X147304763Y-78728571D02*
X147228572Y-78680952D01*
X147228572Y-78680952D02*
X147076191Y-78680952D01*
X147076191Y-78680952D02*
X147000001Y-78728571D01*
X147342858Y-79300000D02*
X147266667Y-79347619D01*
X147266667Y-79347619D02*
X147076191Y-79347619D01*
X147076191Y-79347619D02*
X147000001Y-79300000D01*
X147000001Y-79300000D02*
X146961905Y-79204761D01*
X146961905Y-79204761D02*
X146961905Y-79109523D01*
X146961905Y-79109523D02*
X147000001Y-79014285D01*
X147000001Y-79014285D02*
X147076191Y-78966666D01*
X147076191Y-78966666D02*
X147266667Y-78966666D01*
X147266667Y-78966666D02*
X147342858Y-78919047D01*
X148066668Y-79300000D02*
X147990477Y-79347619D01*
X147990477Y-79347619D02*
X147838096Y-79347619D01*
X147838096Y-79347619D02*
X147761906Y-79300000D01*
X147761906Y-79300000D02*
X147723811Y-79252380D01*
X147723811Y-79252380D02*
X147685715Y-79157142D01*
X147685715Y-79157142D02*
X147685715Y-78871428D01*
X147685715Y-78871428D02*
X147723811Y-78776190D01*
X147723811Y-78776190D02*
X147761906Y-78728571D01*
X147761906Y-78728571D02*
X147838096Y-78680952D01*
X147838096Y-78680952D02*
X147990477Y-78680952D01*
X147990477Y-78680952D02*
X148066668Y-78728571D01*
X148295239Y-78680952D02*
X148600001Y-78680952D01*
X148409525Y-78347619D02*
X148409525Y-79204761D01*
X148409525Y-79204761D02*
X148447620Y-79300000D01*
X148447620Y-79300000D02*
X148523810Y-79347619D01*
X148523810Y-79347619D02*
X148600001Y-79347619D01*
X148866668Y-79347619D02*
X148866668Y-78680952D01*
X148866668Y-78347619D02*
X148828572Y-78395238D01*
X148828572Y-78395238D02*
X148866668Y-78442857D01*
X148866668Y-78442857D02*
X148904763Y-78395238D01*
X148904763Y-78395238D02*
X148866668Y-78347619D01*
X148866668Y-78347619D02*
X148866668Y-78442857D01*
X149171429Y-78680952D02*
X149361905Y-79347619D01*
X149361905Y-79347619D02*
X149552382Y-78680952D01*
X149857144Y-79347619D02*
X149857144Y-78680952D01*
X149857144Y-78347619D02*
X149819048Y-78395238D01*
X149819048Y-78395238D02*
X149857144Y-78442857D01*
X149857144Y-78442857D02*
X149895239Y-78395238D01*
X149895239Y-78395238D02*
X149857144Y-78347619D01*
X149857144Y-78347619D02*
X149857144Y-78442857D01*
X150123810Y-78680952D02*
X150428572Y-78680952D01*
X150238096Y-78347619D02*
X150238096Y-79204761D01*
X150238096Y-79204761D02*
X150276191Y-79300000D01*
X150276191Y-79300000D02*
X150352381Y-79347619D01*
X150352381Y-79347619D02*
X150428572Y-79347619D01*
X150619048Y-78680952D02*
X150809524Y-79347619D01*
X151000001Y-78680952D02*
X150809524Y-79347619D01*
X150809524Y-79347619D02*
X150733334Y-79585714D01*
X150733334Y-79585714D02*
X150695239Y-79633333D01*
X150695239Y-79633333D02*
X150619048Y-79680952D01*
X152295239Y-79347619D02*
X151914287Y-79347619D01*
X151914287Y-79347619D02*
X151914287Y-78347619D01*
X152561906Y-78823809D02*
X152828572Y-78823809D01*
X152942858Y-79347619D02*
X152561906Y-79347619D01*
X152561906Y-79347619D02*
X152561906Y-78347619D01*
X152561906Y-78347619D02*
X152942858Y-78347619D01*
X153285716Y-79347619D02*
X153285716Y-78347619D01*
X153285716Y-78347619D02*
X153476192Y-78347619D01*
X153476192Y-78347619D02*
X153590478Y-78395238D01*
X153590478Y-78395238D02*
X153666668Y-78490476D01*
X153666668Y-78490476D02*
X153704763Y-78585714D01*
X153704763Y-78585714D02*
X153742859Y-78776190D01*
X153742859Y-78776190D02*
X153742859Y-78919047D01*
X153742859Y-78919047D02*
X153704763Y-79109523D01*
X153704763Y-79109523D02*
X153666668Y-79204761D01*
X153666668Y-79204761D02*
X153590478Y-79300000D01*
X153590478Y-79300000D02*
X153476192Y-79347619D01*
X153476192Y-79347619D02*
X153285716Y-79347619D01*
X155038097Y-79347619D02*
X155038097Y-78347619D01*
X155038097Y-79300000D02*
X154961906Y-79347619D01*
X154961906Y-79347619D02*
X154809525Y-79347619D01*
X154809525Y-79347619D02*
X154733335Y-79300000D01*
X154733335Y-79300000D02*
X154695240Y-79252380D01*
X154695240Y-79252380D02*
X154657144Y-79157142D01*
X154657144Y-79157142D02*
X154657144Y-78871428D01*
X154657144Y-78871428D02*
X154695240Y-78776190D01*
X154695240Y-78776190D02*
X154733335Y-78728571D01*
X154733335Y-78728571D02*
X154809525Y-78680952D01*
X154809525Y-78680952D02*
X154961906Y-78680952D01*
X154961906Y-78680952D02*
X155038097Y-78728571D01*
X155419050Y-79347619D02*
X155419050Y-78680952D01*
X155419050Y-78871428D02*
X155457145Y-78776190D01*
X155457145Y-78776190D02*
X155495240Y-78728571D01*
X155495240Y-78728571D02*
X155571431Y-78680952D01*
X155571431Y-78680952D02*
X155647621Y-78680952D01*
X155914288Y-79347619D02*
X155914288Y-78680952D01*
X155914288Y-78347619D02*
X155876192Y-78395238D01*
X155876192Y-78395238D02*
X155914288Y-78442857D01*
X155914288Y-78442857D02*
X155952383Y-78395238D01*
X155952383Y-78395238D02*
X155914288Y-78347619D01*
X155914288Y-78347619D02*
X155914288Y-78442857D01*
X156219049Y-78680952D02*
X156409525Y-79347619D01*
X156409525Y-79347619D02*
X156600002Y-78680952D01*
X157209526Y-79300000D02*
X157133335Y-79347619D01*
X157133335Y-79347619D02*
X156980954Y-79347619D01*
X156980954Y-79347619D02*
X156904764Y-79300000D01*
X156904764Y-79300000D02*
X156866668Y-79204761D01*
X156866668Y-79204761D02*
X156866668Y-78823809D01*
X156866668Y-78823809D02*
X156904764Y-78728571D01*
X156904764Y-78728571D02*
X156980954Y-78680952D01*
X156980954Y-78680952D02*
X157133335Y-78680952D01*
X157133335Y-78680952D02*
X157209526Y-78728571D01*
X157209526Y-78728571D02*
X157247621Y-78823809D01*
X157247621Y-78823809D02*
X157247621Y-78919047D01*
X157247621Y-78919047D02*
X156866668Y-79014285D01*
X157590478Y-79347619D02*
X157590478Y-78680952D01*
X157590478Y-78871428D02*
X157628573Y-78776190D01*
X157628573Y-78776190D02*
X157666668Y-78728571D01*
X157666668Y-78728571D02*
X157742859Y-78680952D01*
X157742859Y-78680952D02*
X157819049Y-78680952D01*
%TO.C,J2*%
X157286666Y-69842619D02*
X157286666Y-70556904D01*
X157286666Y-70556904D02*
X157239047Y-70699761D01*
X157239047Y-70699761D02*
X157143809Y-70795000D01*
X157143809Y-70795000D02*
X157000952Y-70842619D01*
X157000952Y-70842619D02*
X156905714Y-70842619D01*
X157715238Y-69937857D02*
X157762857Y-69890238D01*
X157762857Y-69890238D02*
X157858095Y-69842619D01*
X157858095Y-69842619D02*
X158096190Y-69842619D01*
X158096190Y-69842619D02*
X158191428Y-69890238D01*
X158191428Y-69890238D02*
X158239047Y-69937857D01*
X158239047Y-69937857D02*
X158286666Y-70033095D01*
X158286666Y-70033095D02*
X158286666Y-70128333D01*
X158286666Y-70128333D02*
X158239047Y-70271190D01*
X158239047Y-70271190D02*
X157667619Y-70842619D01*
X157667619Y-70842619D02*
X158286666Y-70842619D01*
D11*
X157342142Y-78168809D02*
X157104047Y-78168809D01*
X157104047Y-78168809D02*
X157104047Y-77668809D01*
X157508809Y-77906904D02*
X157675476Y-77906904D01*
X157746904Y-78168809D02*
X157508809Y-78168809D01*
X157508809Y-78168809D02*
X157508809Y-77668809D01*
X157508809Y-77668809D02*
X157746904Y-77668809D01*
X157961190Y-78168809D02*
X157961190Y-77668809D01*
X157961190Y-77668809D02*
X158080238Y-77668809D01*
X158080238Y-77668809D02*
X158151666Y-77692619D01*
X158151666Y-77692619D02*
X158199285Y-77740238D01*
X158199285Y-77740238D02*
X158223095Y-77787857D01*
X158223095Y-77787857D02*
X158246904Y-77883095D01*
X158246904Y-77883095D02*
X158246904Y-77954523D01*
X158246904Y-77954523D02*
X158223095Y-78049761D01*
X158223095Y-78049761D02*
X158199285Y-78097380D01*
X158199285Y-78097380D02*
X158151666Y-78145000D01*
X158151666Y-78145000D02*
X158080238Y-78168809D01*
X158080238Y-78168809D02*
X157961190Y-78168809D01*
X160098809Y-76205952D02*
X159598809Y-76205952D01*
X159598809Y-76205952D02*
X159598809Y-76015476D01*
X159598809Y-76015476D02*
X159622619Y-75967857D01*
X159622619Y-75967857D02*
X159646428Y-75944047D01*
X159646428Y-75944047D02*
X159694047Y-75920238D01*
X159694047Y-75920238D02*
X159765476Y-75920238D01*
X159765476Y-75920238D02*
X159813095Y-75944047D01*
X159813095Y-75944047D02*
X159836904Y-75967857D01*
X159836904Y-75967857D02*
X159860714Y-76015476D01*
X159860714Y-76015476D02*
X159860714Y-76205952D01*
X159598809Y-75610714D02*
X159598809Y-75515476D01*
X159598809Y-75515476D02*
X159622619Y-75467857D01*
X159622619Y-75467857D02*
X159670238Y-75420238D01*
X159670238Y-75420238D02*
X159765476Y-75396428D01*
X159765476Y-75396428D02*
X159932142Y-75396428D01*
X159932142Y-75396428D02*
X160027380Y-75420238D01*
X160027380Y-75420238D02*
X160075000Y-75467857D01*
X160075000Y-75467857D02*
X160098809Y-75515476D01*
X160098809Y-75515476D02*
X160098809Y-75610714D01*
X160098809Y-75610714D02*
X160075000Y-75658333D01*
X160075000Y-75658333D02*
X160027380Y-75705952D01*
X160027380Y-75705952D02*
X159932142Y-75729761D01*
X159932142Y-75729761D02*
X159765476Y-75729761D01*
X159765476Y-75729761D02*
X159670238Y-75705952D01*
X159670238Y-75705952D02*
X159622619Y-75658333D01*
X159622619Y-75658333D02*
X159598809Y-75610714D01*
X160075000Y-75205951D02*
X160098809Y-75134523D01*
X160098809Y-75134523D02*
X160098809Y-75015475D01*
X160098809Y-75015475D02*
X160075000Y-74967856D01*
X160075000Y-74967856D02*
X160051190Y-74944047D01*
X160051190Y-74944047D02*
X160003571Y-74920237D01*
X160003571Y-74920237D02*
X159955952Y-74920237D01*
X159955952Y-74920237D02*
X159908333Y-74944047D01*
X159908333Y-74944047D02*
X159884523Y-74967856D01*
X159884523Y-74967856D02*
X159860714Y-75015475D01*
X159860714Y-75015475D02*
X159836904Y-75110713D01*
X159836904Y-75110713D02*
X159813095Y-75158332D01*
X159813095Y-75158332D02*
X159789285Y-75182142D01*
X159789285Y-75182142D02*
X159741666Y-75205951D01*
X159741666Y-75205951D02*
X159694047Y-75205951D01*
X159694047Y-75205951D02*
X159646428Y-75182142D01*
X159646428Y-75182142D02*
X159622619Y-75158332D01*
X159622619Y-75158332D02*
X159598809Y-75110713D01*
X159598809Y-75110713D02*
X159598809Y-74991666D01*
X159598809Y-74991666D02*
X159622619Y-74920237D01*
X160098809Y-73665952D02*
X159598809Y-73665952D01*
X159598809Y-73665952D02*
X160098809Y-73380238D01*
X160098809Y-73380238D02*
X159598809Y-73380238D01*
X159836904Y-73142142D02*
X159836904Y-72975475D01*
X160098809Y-72904047D02*
X160098809Y-73142142D01*
X160098809Y-73142142D02*
X159598809Y-73142142D01*
X159598809Y-73142142D02*
X159598809Y-72904047D01*
X159622619Y-72427856D02*
X159598809Y-72475475D01*
X159598809Y-72475475D02*
X159598809Y-72546904D01*
X159598809Y-72546904D02*
X159622619Y-72618332D01*
X159622619Y-72618332D02*
X159670238Y-72665951D01*
X159670238Y-72665951D02*
X159717857Y-72689761D01*
X159717857Y-72689761D02*
X159813095Y-72713570D01*
X159813095Y-72713570D02*
X159884523Y-72713570D01*
X159884523Y-72713570D02*
X159979761Y-72689761D01*
X159979761Y-72689761D02*
X160027380Y-72665951D01*
X160027380Y-72665951D02*
X160075000Y-72618332D01*
X160075000Y-72618332D02*
X160098809Y-72546904D01*
X160098809Y-72546904D02*
X160098809Y-72499285D01*
X160098809Y-72499285D02*
X160075000Y-72427856D01*
X160075000Y-72427856D02*
X160051190Y-72404047D01*
X160051190Y-72404047D02*
X159884523Y-72404047D01*
X159884523Y-72404047D02*
X159884523Y-72499285D01*
D10*
%TO.C,J4*%
X138467619Y-63108333D02*
X139181904Y-63108333D01*
X139181904Y-63108333D02*
X139324761Y-63155952D01*
X139324761Y-63155952D02*
X139420000Y-63251190D01*
X139420000Y-63251190D02*
X139467619Y-63394047D01*
X139467619Y-63394047D02*
X139467619Y-63489285D01*
X138800952Y-62203571D02*
X139467619Y-62203571D01*
X138420000Y-62441666D02*
X139134285Y-62679761D01*
X139134285Y-62679761D02*
X139134285Y-62060714D01*
D11*
X149333809Y-63052857D02*
X149333809Y-63290952D01*
X149333809Y-63290952D02*
X148833809Y-63290952D01*
X149333809Y-62886190D02*
X148833809Y-62886190D01*
X148833809Y-62886190D02*
X148833809Y-62767142D01*
X148833809Y-62767142D02*
X148857619Y-62695714D01*
X148857619Y-62695714D02*
X148905238Y-62648095D01*
X148905238Y-62648095D02*
X148952857Y-62624285D01*
X148952857Y-62624285D02*
X149048095Y-62600476D01*
X149048095Y-62600476D02*
X149119523Y-62600476D01*
X149119523Y-62600476D02*
X149214761Y-62624285D01*
X149214761Y-62624285D02*
X149262380Y-62648095D01*
X149262380Y-62648095D02*
X149310000Y-62695714D01*
X149310000Y-62695714D02*
X149333809Y-62767142D01*
X149333809Y-62767142D02*
X149333809Y-62886190D01*
X148833809Y-62290952D02*
X148833809Y-62195714D01*
X148833809Y-62195714D02*
X148857619Y-62148095D01*
X148857619Y-62148095D02*
X148905238Y-62100476D01*
X148905238Y-62100476D02*
X149000476Y-62076666D01*
X149000476Y-62076666D02*
X149167142Y-62076666D01*
X149167142Y-62076666D02*
X149262380Y-62100476D01*
X149262380Y-62100476D02*
X149310000Y-62148095D01*
X149310000Y-62148095D02*
X149333809Y-62195714D01*
X149333809Y-62195714D02*
X149333809Y-62290952D01*
X149333809Y-62290952D02*
X149310000Y-62338571D01*
X149310000Y-62338571D02*
X149262380Y-62386190D01*
X149262380Y-62386190D02*
X149167142Y-62409999D01*
X149167142Y-62409999D02*
X149000476Y-62409999D01*
X149000476Y-62409999D02*
X148905238Y-62386190D01*
X148905238Y-62386190D02*
X148857619Y-62338571D01*
X148857619Y-62338571D02*
X148833809Y-62290952D01*
X146267619Y-64753809D02*
X146434285Y-65253809D01*
X146434285Y-65253809D02*
X146600952Y-64753809D01*
X147053332Y-65206190D02*
X147029523Y-65230000D01*
X147029523Y-65230000D02*
X146958094Y-65253809D01*
X146958094Y-65253809D02*
X146910475Y-65253809D01*
X146910475Y-65253809D02*
X146839047Y-65230000D01*
X146839047Y-65230000D02*
X146791428Y-65182380D01*
X146791428Y-65182380D02*
X146767618Y-65134761D01*
X146767618Y-65134761D02*
X146743809Y-65039523D01*
X146743809Y-65039523D02*
X146743809Y-64968095D01*
X146743809Y-64968095D02*
X146767618Y-64872857D01*
X146767618Y-64872857D02*
X146791428Y-64825238D01*
X146791428Y-64825238D02*
X146839047Y-64777619D01*
X146839047Y-64777619D02*
X146910475Y-64753809D01*
X146910475Y-64753809D02*
X146958094Y-64753809D01*
X146958094Y-64753809D02*
X147029523Y-64777619D01*
X147029523Y-64777619D02*
X147053332Y-64801428D01*
X147553332Y-65206190D02*
X147529523Y-65230000D01*
X147529523Y-65230000D02*
X147458094Y-65253809D01*
X147458094Y-65253809D02*
X147410475Y-65253809D01*
X147410475Y-65253809D02*
X147339047Y-65230000D01*
X147339047Y-65230000D02*
X147291428Y-65182380D01*
X147291428Y-65182380D02*
X147267618Y-65134761D01*
X147267618Y-65134761D02*
X147243809Y-65039523D01*
X147243809Y-65039523D02*
X147243809Y-64968095D01*
X147243809Y-64968095D02*
X147267618Y-64872857D01*
X147267618Y-64872857D02*
X147291428Y-64825238D01*
X147291428Y-64825238D02*
X147339047Y-64777619D01*
X147339047Y-64777619D02*
X147410475Y-64753809D01*
X147410475Y-64753809D02*
X147458094Y-64753809D01*
X147458094Y-64753809D02*
X147529523Y-64777619D01*
X147529523Y-64777619D02*
X147553332Y-64801428D01*
X143751428Y-64753809D02*
X144060952Y-64753809D01*
X144060952Y-64753809D02*
X143894285Y-64944285D01*
X143894285Y-64944285D02*
X143965714Y-64944285D01*
X143965714Y-64944285D02*
X144013333Y-64968095D01*
X144013333Y-64968095D02*
X144037142Y-64991904D01*
X144037142Y-64991904D02*
X144060952Y-65039523D01*
X144060952Y-65039523D02*
X144060952Y-65158571D01*
X144060952Y-65158571D02*
X144037142Y-65206190D01*
X144037142Y-65206190D02*
X144013333Y-65230000D01*
X144013333Y-65230000D02*
X143965714Y-65253809D01*
X143965714Y-65253809D02*
X143822857Y-65253809D01*
X143822857Y-65253809D02*
X143775238Y-65230000D01*
X143775238Y-65230000D02*
X143751428Y-65206190D01*
X144275237Y-65206190D02*
X144299047Y-65230000D01*
X144299047Y-65230000D02*
X144275237Y-65253809D01*
X144275237Y-65253809D02*
X144251428Y-65230000D01*
X144251428Y-65230000D02*
X144275237Y-65206190D01*
X144275237Y-65206190D02*
X144275237Y-65253809D01*
X144465713Y-64753809D02*
X144775237Y-64753809D01*
X144775237Y-64753809D02*
X144608570Y-64944285D01*
X144608570Y-64944285D02*
X144679999Y-64944285D01*
X144679999Y-64944285D02*
X144727618Y-64968095D01*
X144727618Y-64968095D02*
X144751427Y-64991904D01*
X144751427Y-64991904D02*
X144775237Y-65039523D01*
X144775237Y-65039523D02*
X144775237Y-65158571D01*
X144775237Y-65158571D02*
X144751427Y-65206190D01*
X144751427Y-65206190D02*
X144727618Y-65230000D01*
X144727618Y-65230000D02*
X144679999Y-65253809D01*
X144679999Y-65253809D02*
X144537142Y-65253809D01*
X144537142Y-65253809D02*
X144489523Y-65230000D01*
X144489523Y-65230000D02*
X144465713Y-65206190D01*
X144918094Y-64753809D02*
X145084760Y-65253809D01*
X145084760Y-65253809D02*
X145251427Y-64753809D01*
X141520952Y-64777619D02*
X141473333Y-64753809D01*
X141473333Y-64753809D02*
X141401904Y-64753809D01*
X141401904Y-64753809D02*
X141330476Y-64777619D01*
X141330476Y-64777619D02*
X141282857Y-64825238D01*
X141282857Y-64825238D02*
X141259047Y-64872857D01*
X141259047Y-64872857D02*
X141235238Y-64968095D01*
X141235238Y-64968095D02*
X141235238Y-65039523D01*
X141235238Y-65039523D02*
X141259047Y-65134761D01*
X141259047Y-65134761D02*
X141282857Y-65182380D01*
X141282857Y-65182380D02*
X141330476Y-65230000D01*
X141330476Y-65230000D02*
X141401904Y-65253809D01*
X141401904Y-65253809D02*
X141449523Y-65253809D01*
X141449523Y-65253809D02*
X141520952Y-65230000D01*
X141520952Y-65230000D02*
X141544761Y-65206190D01*
X141544761Y-65206190D02*
X141544761Y-65039523D01*
X141544761Y-65039523D02*
X141449523Y-65039523D01*
X141759047Y-65253809D02*
X141759047Y-64753809D01*
X141759047Y-64753809D02*
X142044761Y-65253809D01*
X142044761Y-65253809D02*
X142044761Y-64753809D01*
X142282857Y-65253809D02*
X142282857Y-64753809D01*
X142282857Y-64753809D02*
X142401905Y-64753809D01*
X142401905Y-64753809D02*
X142473333Y-64777619D01*
X142473333Y-64777619D02*
X142520952Y-64825238D01*
X142520952Y-64825238D02*
X142544762Y-64872857D01*
X142544762Y-64872857D02*
X142568571Y-64968095D01*
X142568571Y-64968095D02*
X142568571Y-65039523D01*
X142568571Y-65039523D02*
X142544762Y-65134761D01*
X142544762Y-65134761D02*
X142520952Y-65182380D01*
X142520952Y-65182380D02*
X142473333Y-65230000D01*
X142473333Y-65230000D02*
X142401905Y-65253809D01*
X142401905Y-65253809D02*
X142282857Y-65253809D01*
D10*
%TO.C,J3*%
X157266666Y-60552619D02*
X157266666Y-61266904D01*
X157266666Y-61266904D02*
X157219047Y-61409761D01*
X157219047Y-61409761D02*
X157123809Y-61505000D01*
X157123809Y-61505000D02*
X156980952Y-61552619D01*
X156980952Y-61552619D02*
X156885714Y-61552619D01*
X157647619Y-60552619D02*
X158266666Y-60552619D01*
X158266666Y-60552619D02*
X157933333Y-60933571D01*
X157933333Y-60933571D02*
X158076190Y-60933571D01*
X158076190Y-60933571D02*
X158171428Y-60981190D01*
X158171428Y-60981190D02*
X158219047Y-61028809D01*
X158219047Y-61028809D02*
X158266666Y-61124047D01*
X158266666Y-61124047D02*
X158266666Y-61362142D01*
X158266666Y-61362142D02*
X158219047Y-61457380D01*
X158219047Y-61457380D02*
X158171428Y-61505000D01*
X158171428Y-61505000D02*
X158076190Y-61552619D01*
X158076190Y-61552619D02*
X157790476Y-61552619D01*
X157790476Y-61552619D02*
X157695238Y-61505000D01*
X157695238Y-61505000D02*
X157647619Y-61457380D01*
D11*
X159578809Y-68257380D02*
X160078809Y-68090714D01*
X160078809Y-68090714D02*
X159578809Y-67924047D01*
X160031190Y-67471667D02*
X160055000Y-67495476D01*
X160055000Y-67495476D02*
X160078809Y-67566905D01*
X160078809Y-67566905D02*
X160078809Y-67614524D01*
X160078809Y-67614524D02*
X160055000Y-67685952D01*
X160055000Y-67685952D02*
X160007380Y-67733571D01*
X160007380Y-67733571D02*
X159959761Y-67757381D01*
X159959761Y-67757381D02*
X159864523Y-67781190D01*
X159864523Y-67781190D02*
X159793095Y-67781190D01*
X159793095Y-67781190D02*
X159697857Y-67757381D01*
X159697857Y-67757381D02*
X159650238Y-67733571D01*
X159650238Y-67733571D02*
X159602619Y-67685952D01*
X159602619Y-67685952D02*
X159578809Y-67614524D01*
X159578809Y-67614524D02*
X159578809Y-67566905D01*
X159578809Y-67566905D02*
X159602619Y-67495476D01*
X159602619Y-67495476D02*
X159626428Y-67471667D01*
X160031190Y-66971667D02*
X160055000Y-66995476D01*
X160055000Y-66995476D02*
X160078809Y-67066905D01*
X160078809Y-67066905D02*
X160078809Y-67114524D01*
X160078809Y-67114524D02*
X160055000Y-67185952D01*
X160055000Y-67185952D02*
X160007380Y-67233571D01*
X160007380Y-67233571D02*
X159959761Y-67257381D01*
X159959761Y-67257381D02*
X159864523Y-67281190D01*
X159864523Y-67281190D02*
X159793095Y-67281190D01*
X159793095Y-67281190D02*
X159697857Y-67257381D01*
X159697857Y-67257381D02*
X159650238Y-67233571D01*
X159650238Y-67233571D02*
X159602619Y-67185952D01*
X159602619Y-67185952D02*
X159578809Y-67114524D01*
X159578809Y-67114524D02*
X159578809Y-67066905D01*
X159578809Y-67066905D02*
X159602619Y-66995476D01*
X159602619Y-66995476D02*
X159626428Y-66971667D01*
X159578809Y-66138334D02*
X159578809Y-66376429D01*
X159578809Y-66376429D02*
X159816904Y-66400238D01*
X159816904Y-66400238D02*
X159793095Y-66376429D01*
X159793095Y-66376429D02*
X159769285Y-66328810D01*
X159769285Y-66328810D02*
X159769285Y-66209762D01*
X159769285Y-66209762D02*
X159793095Y-66162143D01*
X159793095Y-66162143D02*
X159816904Y-66138334D01*
X159816904Y-66138334D02*
X159864523Y-66114524D01*
X159864523Y-66114524D02*
X159983571Y-66114524D01*
X159983571Y-66114524D02*
X160031190Y-66138334D01*
X160031190Y-66138334D02*
X160055000Y-66162143D01*
X160055000Y-66162143D02*
X160078809Y-66209762D01*
X160078809Y-66209762D02*
X160078809Y-66328810D01*
X160078809Y-66328810D02*
X160055000Y-66376429D01*
X160055000Y-66376429D02*
X160031190Y-66400238D01*
X159578809Y-65971667D02*
X160078809Y-65805001D01*
X160078809Y-65805001D02*
X159578809Y-65638334D01*
X159602619Y-64114047D02*
X159578809Y-64161666D01*
X159578809Y-64161666D02*
X159578809Y-64233095D01*
X159578809Y-64233095D02*
X159602619Y-64304523D01*
X159602619Y-64304523D02*
X159650238Y-64352142D01*
X159650238Y-64352142D02*
X159697857Y-64375952D01*
X159697857Y-64375952D02*
X159793095Y-64399761D01*
X159793095Y-64399761D02*
X159864523Y-64399761D01*
X159864523Y-64399761D02*
X159959761Y-64375952D01*
X159959761Y-64375952D02*
X160007380Y-64352142D01*
X160007380Y-64352142D02*
X160055000Y-64304523D01*
X160055000Y-64304523D02*
X160078809Y-64233095D01*
X160078809Y-64233095D02*
X160078809Y-64185476D01*
X160078809Y-64185476D02*
X160055000Y-64114047D01*
X160055000Y-64114047D02*
X160031190Y-64090238D01*
X160031190Y-64090238D02*
X159864523Y-64090238D01*
X159864523Y-64090238D02*
X159864523Y-64185476D01*
X160078809Y-63875952D02*
X159578809Y-63875952D01*
X159578809Y-63875952D02*
X160078809Y-63590238D01*
X160078809Y-63590238D02*
X159578809Y-63590238D01*
X160078809Y-63352142D02*
X159578809Y-63352142D01*
X159578809Y-63352142D02*
X159578809Y-63233094D01*
X159578809Y-63233094D02*
X159602619Y-63161666D01*
X159602619Y-63161666D02*
X159650238Y-63114047D01*
X159650238Y-63114047D02*
X159697857Y-63090237D01*
X159697857Y-63090237D02*
X159793095Y-63066428D01*
X159793095Y-63066428D02*
X159864523Y-63066428D01*
X159864523Y-63066428D02*
X159959761Y-63090237D01*
X159959761Y-63090237D02*
X160007380Y-63114047D01*
X160007380Y-63114047D02*
X160055000Y-63161666D01*
X160055000Y-63161666D02*
X160078809Y-63233094D01*
X160078809Y-63233094D02*
X160078809Y-63352142D01*
D10*
%TO.C,J1*%
X137588666Y-64764619D02*
X137588666Y-65478904D01*
X137588666Y-65478904D02*
X137541047Y-65621761D01*
X137541047Y-65621761D02*
X137445809Y-65717000D01*
X137445809Y-65717000D02*
X137302952Y-65764619D01*
X137302952Y-65764619D02*
X137207714Y-65764619D01*
X138588666Y-65764619D02*
X138017238Y-65764619D01*
X138302952Y-65764619D02*
X138302952Y-64764619D01*
X138302952Y-64764619D02*
X138207714Y-64907476D01*
X138207714Y-64907476D02*
X138112476Y-65002714D01*
X138112476Y-65002714D02*
X138017238Y-65050333D01*
D11*
X140377000Y-72421761D02*
X140400809Y-72350333D01*
X140400809Y-72350333D02*
X140400809Y-72231285D01*
X140400809Y-72231285D02*
X140377000Y-72183666D01*
X140377000Y-72183666D02*
X140353190Y-72159857D01*
X140353190Y-72159857D02*
X140305571Y-72136047D01*
X140305571Y-72136047D02*
X140257952Y-72136047D01*
X140257952Y-72136047D02*
X140210333Y-72159857D01*
X140210333Y-72159857D02*
X140186523Y-72183666D01*
X140186523Y-72183666D02*
X140162714Y-72231285D01*
X140162714Y-72231285D02*
X140138904Y-72326523D01*
X140138904Y-72326523D02*
X140115095Y-72374142D01*
X140115095Y-72374142D02*
X140091285Y-72397952D01*
X140091285Y-72397952D02*
X140043666Y-72421761D01*
X140043666Y-72421761D02*
X139996047Y-72421761D01*
X139996047Y-72421761D02*
X139948428Y-72397952D01*
X139948428Y-72397952D02*
X139924619Y-72374142D01*
X139924619Y-72374142D02*
X139900809Y-72326523D01*
X139900809Y-72326523D02*
X139900809Y-72207476D01*
X139900809Y-72207476D02*
X139924619Y-72136047D01*
X140400809Y-71921762D02*
X139900809Y-71921762D01*
X139900809Y-71921762D02*
X139900809Y-71802714D01*
X139900809Y-71802714D02*
X139924619Y-71731286D01*
X139924619Y-71731286D02*
X139972238Y-71683667D01*
X139972238Y-71683667D02*
X140019857Y-71659857D01*
X140019857Y-71659857D02*
X140115095Y-71636048D01*
X140115095Y-71636048D02*
X140186523Y-71636048D01*
X140186523Y-71636048D02*
X140281761Y-71659857D01*
X140281761Y-71659857D02*
X140329380Y-71683667D01*
X140329380Y-71683667D02*
X140377000Y-71731286D01*
X140377000Y-71731286D02*
X140400809Y-71802714D01*
X140400809Y-71802714D02*
X140400809Y-71921762D01*
X140353190Y-70755096D02*
X140377000Y-70778905D01*
X140377000Y-70778905D02*
X140400809Y-70850334D01*
X140400809Y-70850334D02*
X140400809Y-70897953D01*
X140400809Y-70897953D02*
X140377000Y-70969381D01*
X140377000Y-70969381D02*
X140329380Y-71017000D01*
X140329380Y-71017000D02*
X140281761Y-71040810D01*
X140281761Y-71040810D02*
X140186523Y-71064619D01*
X140186523Y-71064619D02*
X140115095Y-71064619D01*
X140115095Y-71064619D02*
X140019857Y-71040810D01*
X140019857Y-71040810D02*
X139972238Y-71017000D01*
X139972238Y-71017000D02*
X139924619Y-70969381D01*
X139924619Y-70969381D02*
X139900809Y-70897953D01*
X139900809Y-70897953D02*
X139900809Y-70850334D01*
X139900809Y-70850334D02*
X139924619Y-70778905D01*
X139924619Y-70778905D02*
X139948428Y-70755096D01*
X140400809Y-70540810D02*
X139900809Y-70540810D01*
X139900809Y-70540810D02*
X140257952Y-70374143D01*
X140257952Y-70374143D02*
X139900809Y-70207477D01*
X139900809Y-70207477D02*
X140400809Y-70207477D01*
X140400809Y-69969381D02*
X139900809Y-69969381D01*
X139900809Y-69969381D02*
X139900809Y-69850333D01*
X139900809Y-69850333D02*
X139924619Y-69778905D01*
X139924619Y-69778905D02*
X139972238Y-69731286D01*
X139972238Y-69731286D02*
X140019857Y-69707476D01*
X140019857Y-69707476D02*
X140115095Y-69683667D01*
X140115095Y-69683667D02*
X140186523Y-69683667D01*
X140186523Y-69683667D02*
X140281761Y-69707476D01*
X140281761Y-69707476D02*
X140329380Y-69731286D01*
X140329380Y-69731286D02*
X140377000Y-69778905D01*
X140377000Y-69778905D02*
X140400809Y-69850333D01*
X140400809Y-69850333D02*
X140400809Y-69969381D01*
X139924619Y-68326047D02*
X139900809Y-68373666D01*
X139900809Y-68373666D02*
X139900809Y-68445095D01*
X139900809Y-68445095D02*
X139924619Y-68516523D01*
X139924619Y-68516523D02*
X139972238Y-68564142D01*
X139972238Y-68564142D02*
X140019857Y-68587952D01*
X140019857Y-68587952D02*
X140115095Y-68611761D01*
X140115095Y-68611761D02*
X140186523Y-68611761D01*
X140186523Y-68611761D02*
X140281761Y-68587952D01*
X140281761Y-68587952D02*
X140329380Y-68564142D01*
X140329380Y-68564142D02*
X140377000Y-68516523D01*
X140377000Y-68516523D02*
X140400809Y-68445095D01*
X140400809Y-68445095D02*
X140400809Y-68397476D01*
X140400809Y-68397476D02*
X140377000Y-68326047D01*
X140377000Y-68326047D02*
X140353190Y-68302238D01*
X140353190Y-68302238D02*
X140186523Y-68302238D01*
X140186523Y-68302238D02*
X140186523Y-68397476D01*
X140400809Y-68087952D02*
X139900809Y-68087952D01*
X139900809Y-68087952D02*
X140400809Y-67802238D01*
X140400809Y-67802238D02*
X139900809Y-67802238D01*
X140400809Y-67564142D02*
X139900809Y-67564142D01*
X139900809Y-67564142D02*
X139900809Y-67445094D01*
X139900809Y-67445094D02*
X139924619Y-67373666D01*
X139924619Y-67373666D02*
X139972238Y-67326047D01*
X139972238Y-67326047D02*
X140019857Y-67302237D01*
X140019857Y-67302237D02*
X140115095Y-67278428D01*
X140115095Y-67278428D02*
X140186523Y-67278428D01*
X140186523Y-67278428D02*
X140281761Y-67302237D01*
X140281761Y-67302237D02*
X140329380Y-67326047D01*
X140329380Y-67326047D02*
X140377000Y-67373666D01*
X140377000Y-67373666D02*
X140400809Y-67445094D01*
X140400809Y-67445094D02*
X140400809Y-67564142D01*
D10*
%TO.C,R2*%
X152452619Y-71773166D02*
X151976428Y-72106499D01*
X152452619Y-72344594D02*
X151452619Y-72344594D01*
X151452619Y-72344594D02*
X151452619Y-71963642D01*
X151452619Y-71963642D02*
X151500238Y-71868404D01*
X151500238Y-71868404D02*
X151547857Y-71820785D01*
X151547857Y-71820785D02*
X151643095Y-71773166D01*
X151643095Y-71773166D02*
X151785952Y-71773166D01*
X151785952Y-71773166D02*
X151881190Y-71820785D01*
X151881190Y-71820785D02*
X151928809Y-71868404D01*
X151928809Y-71868404D02*
X151976428Y-71963642D01*
X151976428Y-71963642D02*
X151976428Y-72344594D01*
X151547857Y-71392213D02*
X151500238Y-71344594D01*
X151500238Y-71344594D02*
X151452619Y-71249356D01*
X151452619Y-71249356D02*
X151452619Y-71011261D01*
X151452619Y-71011261D02*
X151500238Y-70916023D01*
X151500238Y-70916023D02*
X151547857Y-70868404D01*
X151547857Y-70868404D02*
X151643095Y-70820785D01*
X151643095Y-70820785D02*
X151738333Y-70820785D01*
X151738333Y-70820785D02*
X151881190Y-70868404D01*
X151881190Y-70868404D02*
X152452619Y-71439832D01*
X152452619Y-71439832D02*
X152452619Y-70820785D01*
%TO.C,R1*%
X152452619Y-65190666D02*
X151976428Y-65523999D01*
X152452619Y-65762094D02*
X151452619Y-65762094D01*
X151452619Y-65762094D02*
X151452619Y-65381142D01*
X151452619Y-65381142D02*
X151500238Y-65285904D01*
X151500238Y-65285904D02*
X151547857Y-65238285D01*
X151547857Y-65238285D02*
X151643095Y-65190666D01*
X151643095Y-65190666D02*
X151785952Y-65190666D01*
X151785952Y-65190666D02*
X151881190Y-65238285D01*
X151881190Y-65238285D02*
X151928809Y-65285904D01*
X151928809Y-65285904D02*
X151976428Y-65381142D01*
X151976428Y-65381142D02*
X151976428Y-65762094D01*
X152452619Y-64238285D02*
X152452619Y-64809713D01*
X152452619Y-64523999D02*
X151452619Y-64523999D01*
X151452619Y-64523999D02*
X151595476Y-64619237D01*
X151595476Y-64619237D02*
X151690714Y-64714475D01*
X151690714Y-64714475D02*
X151738333Y-64809713D01*
D11*
X155061428Y-65563761D02*
X155037619Y-65539952D01*
X155037619Y-65539952D02*
X155013809Y-65492333D01*
X155013809Y-65492333D02*
X155013809Y-65373285D01*
X155013809Y-65373285D02*
X155037619Y-65325666D01*
X155037619Y-65325666D02*
X155061428Y-65301857D01*
X155061428Y-65301857D02*
X155109047Y-65278047D01*
X155109047Y-65278047D02*
X155156666Y-65278047D01*
X155156666Y-65278047D02*
X155228095Y-65301857D01*
X155228095Y-65301857D02*
X155513809Y-65587571D01*
X155513809Y-65587571D02*
X155513809Y-65278047D01*
X155513809Y-65063762D02*
X155013809Y-65063762D01*
X155513809Y-64778048D02*
X155228095Y-64992333D01*
X155013809Y-64778048D02*
X155299523Y-65063762D01*
D10*
%TO.C,C1*%
X144613333Y-67775380D02*
X144565714Y-67823000D01*
X144565714Y-67823000D02*
X144422857Y-67870619D01*
X144422857Y-67870619D02*
X144327619Y-67870619D01*
X144327619Y-67870619D02*
X144184762Y-67823000D01*
X144184762Y-67823000D02*
X144089524Y-67727761D01*
X144089524Y-67727761D02*
X144041905Y-67632523D01*
X144041905Y-67632523D02*
X143994286Y-67442047D01*
X143994286Y-67442047D02*
X143994286Y-67299190D01*
X143994286Y-67299190D02*
X144041905Y-67108714D01*
X144041905Y-67108714D02*
X144089524Y-67013476D01*
X144089524Y-67013476D02*
X144184762Y-66918238D01*
X144184762Y-66918238D02*
X144327619Y-66870619D01*
X144327619Y-66870619D02*
X144422857Y-66870619D01*
X144422857Y-66870619D02*
X144565714Y-66918238D01*
X144565714Y-66918238D02*
X144613333Y-66965857D01*
X145565714Y-67870619D02*
X144994286Y-67870619D01*
X145280000Y-67870619D02*
X145280000Y-66870619D01*
X145280000Y-66870619D02*
X145184762Y-67013476D01*
X145184762Y-67013476D02*
X145089524Y-67108714D01*
X145089524Y-67108714D02*
X144994286Y-67156333D01*
D11*
X142946428Y-70431809D02*
X143255952Y-70431809D01*
X143255952Y-70431809D02*
X143089285Y-70622285D01*
X143089285Y-70622285D02*
X143160714Y-70622285D01*
X143160714Y-70622285D02*
X143208333Y-70646095D01*
X143208333Y-70646095D02*
X143232142Y-70669904D01*
X143232142Y-70669904D02*
X143255952Y-70717523D01*
X143255952Y-70717523D02*
X143255952Y-70836571D01*
X143255952Y-70836571D02*
X143232142Y-70884190D01*
X143232142Y-70884190D02*
X143208333Y-70908000D01*
X143208333Y-70908000D02*
X143160714Y-70931809D01*
X143160714Y-70931809D02*
X143017857Y-70931809D01*
X143017857Y-70931809D02*
X142970238Y-70908000D01*
X142970238Y-70908000D02*
X142946428Y-70884190D01*
X143470237Y-70884190D02*
X143494047Y-70908000D01*
X143494047Y-70908000D02*
X143470237Y-70931809D01*
X143470237Y-70931809D02*
X143446428Y-70908000D01*
X143446428Y-70908000D02*
X143470237Y-70884190D01*
X143470237Y-70884190D02*
X143470237Y-70931809D01*
X143660713Y-70431809D02*
X143970237Y-70431809D01*
X143970237Y-70431809D02*
X143803570Y-70622285D01*
X143803570Y-70622285D02*
X143874999Y-70622285D01*
X143874999Y-70622285D02*
X143922618Y-70646095D01*
X143922618Y-70646095D02*
X143946427Y-70669904D01*
X143946427Y-70669904D02*
X143970237Y-70717523D01*
X143970237Y-70717523D02*
X143970237Y-70836571D01*
X143970237Y-70836571D02*
X143946427Y-70884190D01*
X143946427Y-70884190D02*
X143922618Y-70908000D01*
X143922618Y-70908000D02*
X143874999Y-70931809D01*
X143874999Y-70931809D02*
X143732142Y-70931809D01*
X143732142Y-70931809D02*
X143684523Y-70908000D01*
X143684523Y-70908000D02*
X143660713Y-70884190D01*
X144113094Y-70431809D02*
X144279760Y-70931809D01*
X144279760Y-70931809D02*
X144446427Y-70431809D01*
X145795952Y-70455619D02*
X145748333Y-70431809D01*
X145748333Y-70431809D02*
X145676904Y-70431809D01*
X145676904Y-70431809D02*
X145605476Y-70455619D01*
X145605476Y-70455619D02*
X145557857Y-70503238D01*
X145557857Y-70503238D02*
X145534047Y-70550857D01*
X145534047Y-70550857D02*
X145510238Y-70646095D01*
X145510238Y-70646095D02*
X145510238Y-70717523D01*
X145510238Y-70717523D02*
X145534047Y-70812761D01*
X145534047Y-70812761D02*
X145557857Y-70860380D01*
X145557857Y-70860380D02*
X145605476Y-70908000D01*
X145605476Y-70908000D02*
X145676904Y-70931809D01*
X145676904Y-70931809D02*
X145724523Y-70931809D01*
X145724523Y-70931809D02*
X145795952Y-70908000D01*
X145795952Y-70908000D02*
X145819761Y-70884190D01*
X145819761Y-70884190D02*
X145819761Y-70717523D01*
X145819761Y-70717523D02*
X145724523Y-70717523D01*
X146034047Y-70931809D02*
X146034047Y-70431809D01*
X146034047Y-70431809D02*
X146319761Y-70931809D01*
X146319761Y-70931809D02*
X146319761Y-70431809D01*
X146557857Y-70931809D02*
X146557857Y-70431809D01*
X146557857Y-70431809D02*
X146676905Y-70431809D01*
X146676905Y-70431809D02*
X146748333Y-70455619D01*
X146748333Y-70455619D02*
X146795952Y-70503238D01*
X146795952Y-70503238D02*
X146819762Y-70550857D01*
X146819762Y-70550857D02*
X146843571Y-70646095D01*
X146843571Y-70646095D02*
X146843571Y-70717523D01*
X146843571Y-70717523D02*
X146819762Y-70812761D01*
X146819762Y-70812761D02*
X146795952Y-70860380D01*
X146795952Y-70860380D02*
X146748333Y-70908000D01*
X146748333Y-70908000D02*
X146676905Y-70931809D01*
X146676905Y-70931809D02*
X146557857Y-70931809D01*
D10*
%TO.C,D1*%
X149526619Y-70028594D02*
X148526619Y-70028594D01*
X148526619Y-70028594D02*
X148526619Y-69790499D01*
X148526619Y-69790499D02*
X148574238Y-69647642D01*
X148574238Y-69647642D02*
X148669476Y-69552404D01*
X148669476Y-69552404D02*
X148764714Y-69504785D01*
X148764714Y-69504785D02*
X148955190Y-69457166D01*
X148955190Y-69457166D02*
X149098047Y-69457166D01*
X149098047Y-69457166D02*
X149288523Y-69504785D01*
X149288523Y-69504785D02*
X149383761Y-69552404D01*
X149383761Y-69552404D02*
X149479000Y-69647642D01*
X149479000Y-69647642D02*
X149526619Y-69790499D01*
X149526619Y-69790499D02*
X149526619Y-70028594D01*
X149526619Y-68504785D02*
X149526619Y-69076213D01*
X149526619Y-68790499D02*
X148526619Y-68790499D01*
X148526619Y-68790499D02*
X148669476Y-68885737D01*
X148669476Y-68885737D02*
X148764714Y-68980975D01*
X148764714Y-68980975D02*
X148812333Y-69076213D01*
%TO.C,Q1*%
X149067261Y-74057857D02*
X148972023Y-74010238D01*
X148972023Y-74010238D02*
X148876785Y-73915000D01*
X148876785Y-73915000D02*
X148733928Y-73772142D01*
X148733928Y-73772142D02*
X148638690Y-73724523D01*
X148638690Y-73724523D02*
X148543452Y-73724523D01*
X148591071Y-73962619D02*
X148495833Y-73915000D01*
X148495833Y-73915000D02*
X148400595Y-73819761D01*
X148400595Y-73819761D02*
X148352976Y-73629285D01*
X148352976Y-73629285D02*
X148352976Y-73295952D01*
X148352976Y-73295952D02*
X148400595Y-73105476D01*
X148400595Y-73105476D02*
X148495833Y-73010238D01*
X148495833Y-73010238D02*
X148591071Y-72962619D01*
X148591071Y-72962619D02*
X148781547Y-72962619D01*
X148781547Y-72962619D02*
X148876785Y-73010238D01*
X148876785Y-73010238D02*
X148972023Y-73105476D01*
X148972023Y-73105476D02*
X149019642Y-73295952D01*
X149019642Y-73295952D02*
X149019642Y-73629285D01*
X149019642Y-73629285D02*
X148972023Y-73819761D01*
X148972023Y-73819761D02*
X148876785Y-73915000D01*
X148876785Y-73915000D02*
X148781547Y-73962619D01*
X148781547Y-73962619D02*
X148591071Y-73962619D01*
X149972023Y-73962619D02*
X149400595Y-73962619D01*
X149686309Y-73962619D02*
X149686309Y-72962619D01*
X149686309Y-72962619D02*
X149591071Y-73105476D01*
X149591071Y-73105476D02*
X149495833Y-73200714D01*
X149495833Y-73200714D02*
X149400595Y-73248333D01*
%TO.C,U1*%
X143438095Y-72362619D02*
X143438095Y-73172142D01*
X143438095Y-73172142D02*
X143485714Y-73267380D01*
X143485714Y-73267380D02*
X143533333Y-73315000D01*
X143533333Y-73315000D02*
X143628571Y-73362619D01*
X143628571Y-73362619D02*
X143819047Y-73362619D01*
X143819047Y-73362619D02*
X143914285Y-73315000D01*
X143914285Y-73315000D02*
X143961904Y-73267380D01*
X143961904Y-73267380D02*
X144009523Y-73172142D01*
X144009523Y-73172142D02*
X144009523Y-72362619D01*
X145009523Y-73362619D02*
X144438095Y-73362619D01*
X144723809Y-73362619D02*
X144723809Y-72362619D01*
X144723809Y-72362619D02*
X144628571Y-72505476D01*
X144628571Y-72505476D02*
X144533333Y-72600714D01*
X144533333Y-72600714D02*
X144438095Y-72648333D01*
D12*
%TO.C,J2*%
X156290000Y-74420000D02*
X156290000Y-77020000D01*
X156290000Y-74420000D02*
X158950000Y-74420000D01*
X156290000Y-77020000D02*
X158950000Y-77020000D01*
X157620000Y-71820000D02*
X158950000Y-71820000D01*
X158950000Y-71820000D02*
X158950000Y-73150000D01*
X158950000Y-74420000D02*
X158950000Y-77020000D01*
%TO.C,J4*%
X143045000Y-61445000D02*
X148185000Y-61445000D01*
X140445000Y-61445000D02*
X141775000Y-61445000D01*
X140445000Y-62775000D02*
X140445000Y-61445000D01*
X148185000Y-64105000D02*
X148185000Y-61445000D01*
X143045000Y-64105000D02*
X143045000Y-61445000D01*
X143045000Y-64105000D02*
X148185000Y-64105000D01*
%TO.C,J3*%
X156270000Y-65130000D02*
X156270000Y-67730000D01*
X156270000Y-65130000D02*
X158930000Y-65130000D01*
X156270000Y-67730000D02*
X158930000Y-67730000D01*
X157600000Y-62530000D02*
X158930000Y-62530000D01*
X158930000Y-62530000D02*
X158930000Y-63860000D01*
X158930000Y-65130000D02*
X158930000Y-67730000D01*
%TO.C,J1*%
X136592000Y-69342000D02*
X136592000Y-71942000D01*
X136592000Y-69342000D02*
X139252000Y-69342000D01*
X136592000Y-71942000D02*
X139252000Y-71942000D01*
X137922000Y-66742000D02*
X139252000Y-66742000D01*
X139252000Y-66742000D02*
X139252000Y-68072000D01*
X139252000Y-69342000D02*
X139252000Y-71942000D01*
%TO.C,R2*%
X154405000Y-71867752D02*
X154405000Y-71345248D01*
X152935000Y-71867752D02*
X152935000Y-71345248D01*
%TO.C,R1*%
X154405000Y-65285252D02*
X154405000Y-64762748D01*
X152935000Y-65285252D02*
X152935000Y-64762748D01*
%TO.C,C1*%
X144518748Y-68353000D02*
X145041252Y-68353000D01*
X144518748Y-69823000D02*
X145041252Y-69823000D01*
D13*
%TO.C,D1*%
X150164000Y-70325500D02*
G75*
G03*
X150164000Y-70325500I-50000J0D01*
G01*
D12*
%TO.C,Q1*%
X149162500Y-74340000D02*
X147487500Y-74340000D01*
X149162500Y-74340000D02*
X149812500Y-74340000D01*
X149162500Y-77460000D02*
X148512500Y-77460000D01*
X149162500Y-77460000D02*
X149812500Y-77460000D01*
%TO.C,U1*%
X143300000Y-73700000D02*
X144850000Y-73700000D01*
X144850000Y-75500000D02*
X143550000Y-75500000D01*
%TD*%
M02*
